<?xml version="1.0" encoding="UTF-8"?>
<!DOCTYPE svg PUBLIC "-//W3C//DTD SVG 1.1//EN" "http://www.w3.org/Graphics/SVG/1.1/DTD/svg11.dtd">
<svg version="1.1" xmlns="http://www.w3.org/2000/svg" xmlns:xlink="http://www.w3.org/1999/xlink" x="0" y="0" width="300" height="300" viewBox="0, 0, 300, 300">
  <g id="Layer_1">
    <path d="M140.948,132.346 C154.111,126.855 154.636,105.93 148.79,95.014 C140.948,80.375 121.153,82.807 107.787,86.628 C111.488,75.984 118.29,61.446 130.563,59.345 C142.751,57.259 154.683,64.826 165.283,69.731 C174.744,74.109 191.382,79.611 198.218,67.655 C200.293,62.609 194.128,58.451 188.726,55.019 C183.329,51.591 177.588,48.311 171.588,46.063 C301.418,18.523 304.998,290.926 167.553,252.1 C157.63,249.303 148.082,245.27 138.899,240.614 C151.734,241.68 165.557,240.321 175.829,231.995 C184.624,224.866 189.27,209.995 174.774,206.54 C161.748,203.436 147.566,211.368 134.716,212.459 C118.541,213.831 104.745,214.237 95.545,201.483 C102.668,200.594 108.178,198.698 110.976,196.674 C115.812,193.178 120.502,188.278 120.931,182.038 C121.749,170.094 112.575,158.907 102.298,153.819 C97.546,151.471 91.859,150.633 86.722,152.147 C80.113,154.096 78.205,159.803 73.572,164.19 C69.039,168.483 64.807,171.626 58.557,172.874 C51.272,174.161 44.231,170.661 38.622,166.312 C35.551,163.928 32.944,161.042 30.202,158.299 C41.912,159.973 57.526,162.993 64.391,149.853 C69.907,139.28 63.36,127.263 69.194,116.569 C76.685,102.836 95.703,113.597 105.044,118.989 C115.755,125.18 126.428,138.394 140.948,132.346" fill="#AF9757"/>
    <path d="M204.293,189.711 C211.694,178.981 215.605,166.418 215.605,153.381 C215.605,140.629 211.858,128.3 204.77,117.729 C203.293,115.524 200.311,114.938 198.107,116.414 C195.904,117.891 195.316,120.874 196.792,123.077 C202.816,132.062 206,142.541 206,153.381 C206,164.461 202.676,175.139 196.388,184.26 C194.88,186.444 195.431,189.434 197.615,190.94 C199.797,192.446 202.79,191.897 204.293,189.711" fill="#FFFFFE"/>
    <path d="M222.839,202.469 C232.824,187.983 238.101,171.008 238.101,153.381 C238.101,136.146 233.041,119.489 223.471,105.215 C221.995,103.012 219.01,102.423 216.808,103.9 C214.603,105.378 214.016,108.36 215.494,110.563 C223.999,123.25 228.497,138.058 228.497,153.381 C228.497,169.053 223.806,184.141 214.931,197.018 C213.426,199.204 213.977,202.192 216.161,203.698 C218.344,205.204 221.333,204.653 222.839,202.469" fill="#FFFFFE"/>
    <path d="M233.336,98.619 C244.217,114.847 249.968,133.782 249.968,153.381 C249.968,173.418 243.967,192.715 232.616,209.187 C231.11,211.372 231.661,214.362 233.845,215.868 C236.028,217.372 239.019,216.821 240.523,214.637 C252.985,196.555 259.571,175.374 259.571,153.381 C259.571,131.871 253.259,111.084 241.314,93.271 C239.836,91.067 236.854,90.479 234.651,91.956 C232.449,93.434 231.86,96.417 233.336,98.619" fill="#FFFFFE"/>
  </g>
</svg>
